<svg width="14" height="14" viewBox="0 0 14 14" fill="none" xmlns="http://www.w3.org/2000/svg">
<path fill-rule="evenodd" clip-rule="evenodd" d="M6.9546 0.96875H6.95249C6.94986 0.96875 6.94486 0.969277 6.94486 0.969277C6.79874 0.975331 6.67922 1.08748 6.66368 1.23279C6.01682 4.53895 4.21815 6.58572 0.73586 7.16513C0.607647 7.17645 0.501549 7.26938 0.473642 7.39495C0.471799 7.40364 0.469956 7.41259 0.468903 7.42128C0.46864 7.42417 0.468377 7.42681 0.468113 7.4297C0.467587 7.43602 0.46706 7.44234 0.466797 7.44892C0.466797 7.45392 0.466797 7.45892 0.466797 7.46392C0.466797 7.46814 0.466797 7.47261 0.46706 7.47682C0.467587 7.48393 0.468377 7.49104 0.46943 7.49815L0.470219 7.50446C0.491281 7.63925 0.601855 7.74244 0.73823 7.75324C4.21815 8.33291 6.01603 10.3784 6.66342 13.6819C6.67658 13.8235 6.789 13.9351 6.93064 13.948C6.93696 13.9488 6.9438 13.9494 6.94986 13.9496C6.95407 13.9496 6.95828 13.9496 6.9625 13.9496H6.97013C7.11625 13.9436 7.23577 13.8317 7.25131 13.6864C7.89974 10.3799 9.69683 8.33291 13.1791 7.7535C13.3071 7.74244 13.4132 7.64978 13.4413 7.52447L13.4419 7.52184C13.4437 7.51368 13.445 7.50552 13.4461 7.49709C13.4463 7.4942 13.4466 7.49156 13.4469 7.48867C13.4477 7.48235 13.4479 7.47603 13.4482 7.46945C13.4482 7.46445 13.4482 7.45945 13.4482 7.45445C13.4482 7.45023 13.4482 7.44602 13.4479 7.44155C13.4474 7.43444 13.4466 7.42733 13.4456 7.42022L13.4448 7.41391C13.4435 7.40469 13.4416 7.39548 13.4392 7.38653C13.4082 7.26438 13.3029 7.17514 13.1773 7.16513C9.69736 6.58493 7.90053 4.53921 7.25183 1.23542C7.2384 1.09379 7.12572 0.981913 6.98408 0.96954C6.97777 0.969013 6.97145 0.96875 6.96513 0.96875C6.96171 0.96875 6.95802 0.96875 6.9546 0.96875Z" fill="white"/>
</svg>
