<svg width="90" height="55" viewBox="0 0 90 55" fill="none" xmlns="http://www.w3.org/2000/svg">
<g id="Group 2831">
<g id="tidy">
<path d="M11.1477 24.2403L8.60959 36.234C8.01239 39.1205 8.01239 39.3693 10.6998 39.3693H15.129L13.9346 44.9432H8.16169C2.88645 44.9432 0.746496 43.2013 2.09019 36.881L4.77758 24.2403H0L1.19439 18.6665H5.97197L7.51473 11.5001H13.8848L12.3421 18.6665H19.5084L18.314 24.2403H11.1477Z" fill="white"/>
<path d="M21.1111 24.2403L22.3055 18.6665C31.6616 18.6665 31.9104 18.9153 30.4174 24.4394L27.4314 35.5871C26.6351 38.6726 26.7347 39.3693 29.5216 39.3693H31.4625L30.2681 44.9432H25.7393C20.4641 44.9432 18.9711 43.4999 20.5636 37.5777L23.4501 26.9277C24.1468 24.2403 24.0971 24.2403 21.1111 24.2403Z" fill="white"/>
<path d="M33.3175 32.402C35.0095 24.5389 41.1805 18.2683 48.6455 18.2683C51.731 18.2683 53.6719 20.0102 54.5179 21.7022C54.717 22.0008 55.0156 22.399 55.4137 22.1999C55.8616 21.9511 55.9114 21.6525 55.7123 21.2046C55.3142 20.3088 55.1649 19.6618 55.364 18.6665L57.4044 9.11133H63.7745L58.7979 32.6011C57.4044 39.1702 56.9067 41.8079 57.7528 44.9432H51.2831C50.3873 41.559 52.378 38.8219 53.1245 37.1298C53.3236 36.6819 53.4729 36.3336 53.0747 36.1843C52.6766 36.035 52.3282 36.4331 52.2785 36.5824C49.5413 41.559 45.8088 45.3413 40.8322 45.3413C35.4076 45.3413 31.6254 40.5139 33.3175 32.402ZM39.6378 32.8001C38.5927 37.5777 40.5336 39.7674 43.221 39.7674C47.4511 39.7674 51.7808 35.5373 53.6222 26.8282C52.1292 24.738 50.8352 23.8422 48.3469 23.8422C43.9177 23.8422 40.7824 27.3258 39.6378 32.8001Z" fill="white"/>
<path d="M63.077 32.9992L66.1127 18.6665H72.4828L69.4969 32.8001C68.5015 37.3289 68.3025 39.1702 70.7908 39.1702C74.0754 39.1702 80.9929 31.0583 82.5357 23.7924L83.6305 18.6665H90.0006L85.9198 37.7768C83.2822 50.3179 80.4455 54.4983 68.1034 54.4983H59.2947L60.4891 48.9245H67.3071C76.4642 48.9245 77.5093 47.4812 79.0022 40.5139C79.5994 37.6773 80.7441 36.0847 81.2417 35.1392C81.4906 34.6913 81.5901 34.2931 81.2417 34.1438C80.8436 33.9945 80.4952 34.3429 80.4455 34.4922C78.8032 37.528 73.7768 44.545 67.7053 44.545C61.5342 44.545 61.3352 41.0614 63.077 32.9992Z" fill="white"/>
</g>
<path id="Vector" fill-rule="evenodd" clip-rule="evenodd" d="M30.4482 0.367188C30.4482 0.367188 30.447 0.367188 30.4463 0.367188C30.444 0.367188 30.4416 0.367188 30.4394 0.367748C30.3084 0.374197 30.1802 0.49364 30.1378 0.64841C28.9127 4.16972 26.9119 6.34969 23.7038 6.96681C23.5877 6.97886 23.4751 7.07784 23.4256 7.21158C23.4223 7.22083 23.4189 7.23037 23.4162 7.23962C23.4154 7.2427 23.4147 7.24551 23.4139 7.24859C23.4122 7.25532 23.4105 7.26205 23.4089 7.26906C23.408 7.27439 23.407 7.27971 23.406 7.28504C23.4052 7.28953 23.4043 7.29429 23.4037 7.29878C23.4028 7.30635 23.4021 7.31392 23.4016 7.32149C23.4012 7.32373 23.4012 7.32598 23.4011 7.32822C23.3933 7.47177 23.4712 7.58168 23.5903 7.59318C26.5682 8.21058 27.7634 10.3891 27.6888 13.9076C27.6726 14.0585 27.7506 14.1774 27.8739 14.1911C27.8793 14.192 27.8853 14.1925 27.8906 14.1928C27.8944 14.1928 27.8981 14.1928 27.9019 14.1928H27.9086C28.0397 14.1863 28.1679 14.0672 28.2103 13.9124C29.4368 10.3908 31.4362 8.21058 34.6443 7.59346C34.7602 7.58168 34.8727 7.48299 34.9223 7.34953C34.9225 7.34841 34.9232 7.34757 34.9233 7.34672C34.9266 7.33803 34.9293 7.32934 34.9319 7.32037C34.9327 7.31728 34.9335 7.31448 34.9343 7.3114C34.9362 7.30467 34.9377 7.29794 34.9392 7.29093C34.9402 7.2856 34.9412 7.28027 34.9422 7.27495C34.943 7.27046 34.9439 7.26597 34.9445 7.26121C34.9454 7.25364 34.9461 7.24607 34.9466 7.2385C34.947 7.23625 34.9469 7.23401 34.9471 7.23177C34.9478 7.22195 34.9479 7.21214 34.9476 7.20261C34.944 7.07251 34.868 6.97746 34.7584 6.96681C31.7805 6.34885 30.5864 4.17 30.6598 0.651214C30.6758 0.500369 30.5977 0.381207 30.4742 0.368029C30.4687 0.367468 30.4632 0.367188 30.4575 0.367188C30.4545 0.367188 30.4512 0.367188 30.4482 0.367188Z" fill="#9A75E0"/>
</g>
</svg>
